# xmcd
#
# Track frame offsets:
#	150
#	23620
#	40840
#	58172
#	72790
#	90820
#	107587
#	121032
#	137712
#	154107
#	167222
#	184437
#
# Disc length: 2684 seconds
#
# Revision: 1
# Processed by: cddbd v1.5.2PL0 Copyright (c) Steve Scherf et al.
# Submitted via: audiograbber 1.83.01
#
DISCID=950a7a0c
DTITLE=Michael Dee - Bellaphon 290.07.225
DYEAR=1997
DGENRE=
TTITLE0=Forever Blue
TTITLE1=Seven Red Roses
TTITLE2=Baby Blue
TTITLE3=Heartbreak Radio
TTITLE4=Dream River
TTITLE5=Down In Mexico
TTITLE6=Baby Rive It Up
TTITLE7=Indian Summer
TTITLE8=My Last Love
TTITLE9=Running From Love
TTITLE10=Pretty Dream Girl
TTITLE11=Where The Eagles Fly
EXTD=
EXTT0=
EXTT1=
EXTT2=
EXTT3=
EXTT4=
EXTT5=
EXTT6=
EXTT7=
EXTT8=
EXTT9=
EXTT10=
EXTT11=
PLAYORDER=
